<svg width="24" height="24" viewBox="0 0 24 24" fill="none" xmlns="http://www.w3.org/2000/svg">
<path d="M5 2C3.34315 2 2 3.34315 2 5V19C2 20.6569 3.34315 22 5 22H19C20.6569 22 22 20.6569 22 19V5C22 3.34315 20.6569 2 19 2H5ZM4 5C4 4.44772 4.44772 4 5 4H19C19.5523 4 20 4.44772 20 5V19C20 19.5523 19.5523 20 19 20H5C4.44772 20 4 19.5523 4 19V5ZM12.3137 5.70711C13.4853 4.53553 15.3848 4.53553 16.5564 5.70711C17.728 6.87868 17.728 8.77817 16.5564 9.94975L12.6569 13.8492C12.5173 13.9888 12.3395 14.084 12.1459 14.1227L8.61036 14.8298C8.2825 14.8954 7.94356 14.7928 7.70714 14.5563C7.47071 14.3199 7.36809 13.981 7.43366 13.6531L8.14077 10.1176C8.17949 9.924 8.27464 9.7462 8.41424 9.6066L12.3137 5.70711ZM15.1422 7.12132C14.7516 6.7308 14.1185 6.7308 13.728 7.12132L10.0426 10.8067L9.689 12.5745L11.4568 12.2209L15.1422 8.53553C15.5327 8.14501 15.5327 7.51184 15.1422 7.12132ZM7 17C7 16.4477 7.44772 16 8 16H16C16.5523 16 17 16.4477 17 17C17 17.5523 16.5523 18 16 18H8C7.44772 18 7 17.5523 7 17Z" fill="black"/>
</svg>
